<svg xmlns="http://www.w3.org/2000/svg" viewBox="0 0 41.59 41.66"><defs><style>.cls-1{fill:#fff;fill-rule:evenodd}</style></defs><g id="Слой_2" data-name="Слой 2"><g id="Слой_1-2" data-name="Слой 1"><path class="cls-1" d="M41.59 20.77A20.8 20.8 0 1 1 20.74 0a20.79 20.79 0 0 1 20.85 20.77zM20.43 9.3A11.42 11.42 0 0 0 9.28 21.59 11.54 11.54 0 1 0 20.43 9.3z"/><path class="cls-1" d="M10.9 18.59l.64-1.71a5.07 5.07 0 0 0 6.46-.41 4.66 4.66 0 0 0 1.7-5.66h2.23A4.88 4.88 0 0 0 24 16.74a4.88 4.88 0 0 0 6.07.1l.59 1.78c-2.83.09-4.38 1.69-5.07 4.2a4.9 4.9 0 0 0 2 5.53l-1.7 1.27A4.91 4.91 0 0 0 20.63 26a4.79 4.79 0 0 0-4.91 3.59L14 28.35a5 5 0 0 0 2-5.76c-.74-2.36-2.36-3.7-5.1-4zm9.86-.16a2.42 2.42 0 1 0 2.48 2.38 2.44 2.44 0 0 0-2.48-2.39z"/></g></g></svg>