<svg xmlns="http://www.w3.org/2000/svg" viewBox="0 0 91.45 54.43"><defs><style>.cls-1{fill:#fff}</style></defs><g id="Слой_2" data-name="Слой 2"><g id="Слой_1-2" data-name="Слой 1"><path class="cls-1" d="M23.33 49.55a4.89 4.89 0 0 1-4.89 4.89h-5.55A4.89 4.89 0 0 1 8 49.55V35.77c0-2.7 2.19 6.65 4.88 6.65h5.56a4.89 4.89 0 0 1 4.89 4.89zm44.79 0A4.89 4.89 0 0 0 73 54.43h5.56a4.89 4.89 0 0 0 4.88-4.89v-8c0-2.7-2.19.88-4.88.88H73a4.89 4.89 0 0 0-4.89 4.89z"/><path class="cls-1" d="M91.45 17.51c0-4.49-9.64-2.3-9.64-2.3v3.65l-1.94.64c-.07-2.38-.71-9.42-5.53-14.4C71.07 1.71 66.66 0 61.23 0h-31c-5.43 0-9.84 1.71-13.12 5.09-4.82 5-5.46 12-5.53 14.4l-1.94-.64v-3.64S0 13 0 17.51s8.4 4 8.4 4l.38 1.17c-1.27 1.65-2.5 4.33-2.5 8.56v8.27s-4.48 8.08 39.45 8.08 39.45-8.09 39.45-8.09v-8.27c0-4.23-1.23-6.91-2.5-8.56l.38-1.17s8.39.5 8.39-3.99zm-77.91 23c-3.11-2.07-3.29-8.83 0-10.78s14.92 4.83 15.1 7.57-11.99 5.31-15.1 3.24zm1.7-20.31s-.52-16.54 15-16.54h31c15.5 0 15 16.54 15 16.54h-61zm62.67 20.34C74.8 42.61 62.63 40 62.8 37.32s11.82-9.52 15.11-7.57 3.09 8.72 0 10.79z"/></g></g></svg>