<svg xmlns="http://www.w3.org/2000/svg" viewBox="0 0 24.27 30.19"><defs><style>.cls-2{fill:#8d8e8e}</style></defs><g id="Слой_2" data-name="Слой 2"><g id="Слой_1-2" data-name="Слой 1"><path d="M21.72 29.71a4.24 4.24 0 0 1-1.91-1.47 2.9 2.9 0 0 1-.52-1.65V3.6a2.92 2.92 0 0 1 .53-1.6A3.89 3.89 0 0 1 21 .86 6.28 6.28 0 0 1 24.27 0v2.6a4.12 4.12 0 0 0-1.59.29 1.81 1.81 0 0 0-.79.55.27.27 0 0 0-.06.15v23s0 .06.06.16a1.42 1.42 0 0 0 .41.36 3.83 3.83 0 0 0 2 .48v2.6a6.69 6.69 0 0 1-2.58-.48z" fill="#868787"/><ellipse class="cls-2" cx="1.21" cy="15.18" rx="1.21" ry="1.25"/><ellipse class="cls-2" cx="5.84" cy="15.18" rx="1.21" ry="1.25"/><ellipse class="cls-2" cx="10.46" cy="15.18" rx="1.21" ry="1.25"/></g></g></svg>