<svg xmlns="http://www.w3.org/2000/svg" viewBox="0 0 36.42 22.72"><g data-name="Слой 2"><path d="M36.42 11.33v9.26a2.07 2.07 0 1 1-4.13.09v-6.56c0-.52-.11-.72-.67-.7h-5.33c-.5 0-.63.16-.62.64v6.56a2 2 0 0 1-2.69 2 2 2 0 0 1-1.46-2.09v-6.39c0-.55-.13-.75-.71-.73q-2.58.05-5.16 0c-.57 0-.77.11-.76.74v6.33a2.08 2.08 0 1 1-4.15 0v-6.45c0-.48-.14-.64-.63-.63H3.25a4.16 4.16 0 0 1-2.4-.61A1.81 1.81 0 0 1 0 11.21v-9A2 2 0 0 1 2.08 0a2 2 0 0 1 2.06 2.19v6.5c0 .47.14.6.59.59h5.45c.48 0 .59-.17.59-.61V2.11A2 2 0 0 1 12.85 0a2 2 0 0 1 2.06 2.08v6.5c0 .51.1.72.67.7h5.27c.55 0 .69-.18.68-.7V2.14a2.07 2.07 0 1 1 4.15 0v6.39c0 .77 0 .78.76.78h5.21c.53 0 .66-.16.65-.67V2.25a2.07 2.07 0 1 1 4.13 0c-.01 3.03-.01 6.06-.01 9.08z" fill="#fff" fill-rule="evenodd" data-name="Слой 1"/></g></svg>