<svg xmlns="http://www.w3.org/2000/svg" viewBox="0 0 42.95 18.07"><defs><style>.cls-1{fill:#fff;fill-rule:evenodd}</style></defs><g id="Слой_2" data-name="Слой 2"><g id="Слой_1-2" data-name="Слой 1"><path class="cls-1" d="M40.48 8.73A35.87 35.87 0 0 0 36 7a25.4 25.4 0 0 0-2.65-.59c-3.12-2.26-4-2.71-5.16-3.47a17.17 17.17 0 0 0-16.36-1.59A45.94 45.94 0 0 0 5.32 5a2.85 2.85 0 0 1-1.64.48 12.48 12.48 0 0 0-2 .16A1.63 1.63 0 0 0 .13 7.2a7.54 7.54 0 0 0 .66 4.9c-.73.9-.55 1.9.43 1.9 1.41.1 2.82 0 4.25 0 .71-2.58 2-3.79 4.07-3.85a4.06 4.06 0 0 1 2.55.75 4.42 4.42 0 0 1 1.81 3.4l12.92.26c.32-2.68 1.67-4.22 3.76-4.4a4.15 4.15 0 0 1 2.79.68 4.36 4.36 0 0 1 1.86 3.9h6.11c1.19 0 1.63-.42 1.62-1.62a4.64 4.64 0 0 0-2.48-4.39zM17.4 5.88L7.27 5.65A16.7 16.7 0 0 1 17.4 1.59zm1.68 0c-.17 0-.47-.23-.47-.36v-4c4.71-.53 8.2 1.93 11.63 4.57-3.74.01-7.45-.09-11.16-.17zM37.39 8.4A3.35 3.35 0 0 1 41 10.27a2.66 2.66 0 0 1-3.61-1.87z"/><path class="cls-1" d="M31 10.64a3.72 3.72 0 1 0 3.74 3.72A3.68 3.68 0 0 0 31 10.64zm0 5.47a1.77 1.77 0 0 1-1.78-1.75A1.79 1.79 0 0 1 31 12.6a1.76 1.76 0 1 1 0 3.51zM9.76 10.64a3.71 3.71 0 1 0 3.64 3.73 3.69 3.69 0 0 0-3.64-3.73zm0 5.47a1.75 1.75 0 0 1-1.78-1.75 1.76 1.76 0 1 1 1.78 1.75z"/></g></g></svg>