<svg xmlns="http://www.w3.org/2000/svg" viewBox="0 0 66.28 38.69"><defs><style>.cls-2{fill:#8d8e8e}</style></defs><g id="Слой_2" data-name="Слой 2"><g id="Слой_1-2" data-name="Слой 1"><path d="M2.55 9a4.23 4.23 0 0 1 1.91 1.47A2.91 2.91 0 0 1 5 12.1v23a2.91 2.91 0 0 1-.52 1.64 3.88 3.88 0 0 1-1.17 1.1 6.29 6.29 0 0 1-3.31.85v-2.6a4.14 4.14 0 0 0 1.59-.29 1.81 1.81 0 0 0 .79-.55c.06-.1.06-.13.06-.15v-23a.26.26 0 0 0-.06-.16 1.42 1.42 0 0 0-.38-.36 3.83 3.83 0 0 0-2-.48V8.5a6.69 6.69 0 0 1 2.55.5z" fill="#868787"/><ellipse class="cls-2" cx="65.01" cy="25.86" rx="1.27" ry="1.25"/><ellipse class="cls-2" cx="60.17" cy="25.86" rx="1.27" ry="1.25"/><ellipse class="cls-2" cx="55.33" cy="25.86" rx="1.27" ry="1.25"/><ellipse class="cls-2" cx="50.48" cy="25.86" rx="1.27" ry="1.25"/><ellipse class="cls-2" cx="45.64" cy="25.86" rx="1.27" ry="1.25"/><ellipse class="cls-2" cx="40.8" cy="25.86" rx="1.27" ry="1.25"/><ellipse class="cls-2" cx="35.95" cy="25.86" rx="1.27" ry="1.25"/><ellipse class="cls-2" cx="31.11" cy="25.86" rx="1.27" ry="1.25"/><ellipse class="cls-2" cx="26.27" cy="25.86" rx="1.27" ry="1.25"/><ellipse class="cls-2" cx="21.43" cy="25.86" rx="1.27" ry="1.25"/><ellipse class="cls-2" cx="16.58" cy="25.86" rx="1.27" ry="1.25"/><ellipse class="cls-2" cx="11.74" cy="25.86" rx="1.27" ry="1.25"/><ellipse class="cls-2" cx="65.01" cy="1.27" rx="1.25" ry="1.27"/><ellipse class="cls-2" cx="65.01" cy="6.11" rx="1.25" ry="1.27"/><ellipse class="cls-2" cx="65.01" cy="10.96" rx="1.25" ry="1.27"/><ellipse class="cls-2" cx="65.01" cy="15.8" rx="1.25" ry="1.27"/><ellipse class="cls-2" cx="65.01" cy="20.64" rx="1.25" ry="1.27"/></g></g></svg>