<svg xmlns="http://www.w3.org/2000/svg" viewBox="0 0 46.52 14.05"><g data-name="Слой 2"><path d="M17 1.78v-.59A1 1 0 0 0 16.51.1a.89.89 0 0 0-1.07.2c-.13-.1-.23-.24-.33-.24H12.4v.67a7.7 7.7 0 0 1-.93.44A.89.89 0 0 1 11 1a2.34 2.34 0 0 0-.55-.21h-3.6v1.26c0 .16.07.36-.21.4 0 0-.07.2-.08.32a7.66 7.66 0 0 1-.1 1.27 1.09 1.09 0 0 1-1.49.82A7.74 7.74 0 0 1 3.9 4.4 2.71 2.71 0 1 0 2 9.46a2.61 2.61 0 0 0 1.92-.15A5.61 5.61 0 0 1 5 8.88 1.16 1.16 0 0 1 6.47 10v.77c0 .26-.15.5.23.58v1.62h3.51a.73.73 0 0 0 .68-.23c.08-.09.35-.1.51 0a5.41 5.41 0 0 1 .75.4l.08-.08v.74h3v-.36a3.81 3.81 0 0 0 .77.41.79.79 0 0 0 .93-.47 1.68 1.68 0 0 0 .07-.18c.13-.33.17-.8.42-1s.7 0 1.06 0h.89v.79a.9.9 0 0 0 .76.94.89.89 0 0 0 1-.63c.14-.36.19-.86.45-1s.75 0 1.14 0h.8v.84a.9.9 0 0 0 .77.9.84.84 0 0 0 1-.6c.55-1.55 1.1-3.11 1.61-4.67.14-.44.32-.65.85-.48v4.79a.91.91 0 0 0 1.79.31c.53-1.53 1.06-3.07 1.58-4.6.19-.55.19-.55.84-.48v4.74c0 .64.23 1 .75 1.06s.86-.16 1.07-.75l1.72-5v-.08h.6v5.78h1.72v-1.69h1.32a.43.43 0 0 0 .51-.33c.27-.79.57-1.56.83-2.35.16-.49.35-.67.87-.56a4.67 4.67 0 0 1 1.13.41 2.7 2.7 0 0 0 4-2.11A2.51 2.51 0 0 0 45.41 5a2.64 2.64 0 0 0-2.67-.3c-.37.15-.73.33-1.12.45a1.71 1.71 0 0 1-.68 0 .44.44 0 0 1-.4-.37c-.26-.87-.57-1.73-.85-2.59a.34.34 0 0 0-.37-.19H37.9V.29h-1.56C35.72 2 35.1 3.76 34.53 5.53c-.14.44-.34.59-.82.46V1.27a1 1 0 0 0-.43-1A.88.88 0 0 0 32 .82c-.55 1.55-1.08 3.11-1.62 4.67-.19.55-.19.55-.83.45V1.15a.92.92 0 0 0-.75-1 .93.93 0 0 0-1 .74c-.54 1.53-1.06 3.07-1.59 4.6-.21.51-.21.51-.89.43V1.1a.91.91 0 0 0-.76-1 .94.94 0 0 0-1 .73l-.35 1h-2v-.81A.9.9 0 0 0 20.43 0a.91.91 0 0 0-1 .64c-.11.29-.19.59-.31.87 0 .1-.17.23-.26.23-.59.07-1.2.05-1.86.04z" fill="#fff" fill-rule="evenodd" data-name="Слой 1"/></g></svg>