<svg xmlns="http://www.w3.org/2000/svg" viewBox="0 0 67.43 40.93"><defs><style>.cls-1{fill:#8d8e8e}</style></defs><g id="Слой_2" data-name="Слой 2"><g id="Слой_1-2" data-name="Слой 1"><ellipse class="cls-1" cx="1.27" cy="15.08" rx="1.27" ry="1.25"/><ellipse class="cls-1" cx="6.11" cy="15.08" rx="1.27" ry="1.25"/><ellipse class="cls-1" cx="10.96" cy="15.07" rx="1.27" ry="1.25"/><ellipse class="cls-1" cx="15.8" cy="15.07" rx="1.27" ry="1.25"/><ellipse class="cls-1" cx="20.64" cy="15.07" rx="1.27" ry="1.25"/><ellipse class="cls-1" cx="25.48" cy="15.07" rx="1.27" ry="1.25"/><ellipse class="cls-1" cx="30.33" cy="15.07" rx="1.27" ry="1.25"/><ellipse class="cls-1" cx="35.17" cy="15.07" rx="1.27" ry="1.25"/><ellipse class="cls-1" cx="40.01" cy="15.07" rx="1.27" ry="1.25"/><ellipse class="cls-1" cx="44.85" cy="15.07" rx="1.27" ry="1.25"/><ellipse class="cls-1" cx="49.7" cy="15.07" rx="1.27" ry="1.25"/><ellipse class="cls-1" cx="54.54" cy="15.07" rx="1.27" ry="1.25"/><ellipse class="cls-1" cx="1.27" cy="39.66" rx="1.25" ry="1.27"/><ellipse class="cls-1" cx="1.27" cy="34.82" rx="1.25" ry="1.27"/><ellipse class="cls-1" cx="1.27" cy="29.98" rx="1.25" ry="1.27"/><ellipse class="cls-1" cx="1.27" cy="25.13" rx="1.25" ry="1.27"/><ellipse class="cls-1" cx="1.27" cy="20.29" rx="1.25" ry="1.27"/><path d="M64.88 29.71A4.23 4.23 0 0 1 63 28.24a2.9 2.9 0 0 1-.52-1.65V3.6A2.91 2.91 0 0 1 63 2 3.89 3.89 0 0 1 64.15.86 6.29 6.29 0 0 1 67.43 0v2.6a4.14 4.14 0 0 0-1.59.29 1.8 1.8 0 0 0-.79.56c-.06.1-.06.13-.06.15v23s0 .06.06.16a1.43 1.43 0 0 0 .41.36 3.84 3.84 0 0 0 2 .48v2.6a6.69 6.69 0 0 1-2.58-.49z" fill="#868787"/></g></g></svg>