<svg xmlns="http://www.w3.org/2000/svg" viewBox="0 0 98.98 58.56"><defs><style>.cls-1,.cls-2{fill:#fff}.cls-1{fill-rule:evenodd}.cls-3{fill:none;stroke:#fcfcfc;stroke-miterlimit:10}</style></defs><g id="Слой_2" data-name="Слой 2"><g id="Слой_1-2" data-name="Слой 1"><path class="cls-1" d="M77.52 16.84c-4.33.74-44.7 1.55-50.43 1 1.43-.55 47.05-1.5 50.43-1zm2.02 21.95a3.43 3.43 0 0 0 .82.11c2.14-.27 4.28-.55 6.42-.84 1.53-.21 3.06-.42 4.59-.65A11.75 11.75 0 0 0 93 37c.93-.29 1.44-7.08 1.09-8-.86 5-2.77 5-5.31 5.5-1.06.07-3.55.64-4.62.57-.26 0-.6-.05-.76.09a194.64 194.64 0 0 0-3.72 3.3c-.02.02-.04.1-.14.33zm8.34-8.68c-.74.25-1.48.48-2.21.75-3 1.15-6.08 2.32-9.12 3.47a1.93 1.93 0 0 1-.93.15c-1.12-.18-2.22-.41-3.5-.65a2.54 2.54 0 0 1 .42-.32 115.47 115.47 0 0 1 13.88-4.28 2.92 2.92 0 0 1 2.38 0"/><path class="cls-2" d="M91.46 32c0 .06-2.64 2.15-4.57-1.16l-.54.21c-3.11 1.2-6.23 2.39-9.34 3.62a5.66 5.66 0 0 0-1.07.74l.12.14c3.2-1.15 6.4-2.29 9.59-3.47a1.34 1.34 0 0 1 1.73.43c.81.81 2 1.26 3.88.58a5.19 5.19 0 0 0 2-3c-1.49-.09-1.37 1.18-1.8 1.91z"/><circle class="cls-2" cx="89.56" cy="30.62" r="1.79"/><path class="cls-1" d="M19.25 38.79a3.45 3.45 0 0 1-.82.11c-2.14-.27-4.28-.55-6.42-.84-1.53-.21-3.06-.42-4.59-.65A11.76 11.76 0 0 1 5.76 37c-.93-.29-1.44-7.08-1.09-8 .86 5 2.77 5 5.31 5.5 1.06.07 3.55.64 4.63.57.26 0 .6-.05.76.09 1.26 1.08 2.49 2.19 3.72 3.3.05.02.06.1.16.33zm-8.34-8.68c.74.25 1.48.48 2.21.75 3 1.15 6.08 2.32 9.12 3.47a1.93 1.93 0 0 0 .93.15c1.12-.18 2.22-.41 3.5-.65a2.56 2.56 0 0 0-.42-.32 115.49 115.49 0 0 0-13.88-4.28 2.92 2.92 0 0 0-2.39 0"/><path class="cls-2" d="M7.34 32c0 .06 2.64 2.15 4.57-1.16l.54.21c3.11 1.2 6.23 2.39 9.34 3.62a5.69 5.69 0 0 1 1.07.74l-.12.14c-3.2-1.15-6.4-2.29-9.59-3.47a1.34 1.34 0 0 0-1.73.43c-.81.81-2 1.26-3.87.58a5.18 5.18 0 0 1-2-3C7 30 6.9 31.27 7.34 32z"/><circle class="cls-2" cx="9.23" cy="30.62" r="1.79"/><path class="cls-3" d="M97.38 54.73c-.38-1.07 4.12-21.73-2.8-28.6-4.08-5.06-10.3-8.13-9.24-8.41a44.93 44.93 0 0 1 5.06-.53c.35 0 2.32-1.52 1.57-2.78-1.08-1.8-8.68-1.56-8.68-1.56s-6.16-8.53-7.52-9.89A7.6 7.6 0 0 0 70.14.5H48.63"/><path class="cls-3" d="M1.6 54.73c.35-1.07-4.12-21.73 2.8-28.6 4.08-5.06 10.3-8.13 9.24-8.41a44.89 44.89 0 0 0-5.06-.53c-.35 0-2.32-1.52-1.57-2.78 1.08-1.8 8.68-1.56 8.68-1.56s6.16-8.53 7.53-9.89A7.6 7.6 0 0 1 28.84.5h20.07"/><path fill="red" d="M24.83 53.18h49.23v.96H24.83z"/><path d="M97.6 54.71c-2.6 2.6-11.23 2.92-15.24 3.51 0 0-3.91.35-4 .34a3.48 3.48 0 0 1-1.48-.36c-2.07-1.41-4.09-2.88-6.12-4.34a2.52 2.52 0 0 1-.28-.3c1.82-.18 3.81-.94 5.37.34a27.35 27.35 0 0 0 4.53 2.57c1.71 0 4.62-.15 5.89-.31 1.44-.18 6.83-.18 9.18-1.44a2.16 2.16 0 0 1 2.15-.01zm-96.22 0c2.62 2.6 11.23 2.92 15.24 3.51 0 0 3.91.35 4 .34a3.48 3.48 0 0 0 1.48-.36c2.07-1.41 4.09-2.88 6.13-4.34a2.5 2.5 0 0 0 .28-.3c-1.82-.18-3.81-.94-5.37.34a27.31 27.31 0 0 1-4.53 2.57c-1.71 0-4.62-.15-5.89-.31C11.29 56 5.9 56 3.54 54.73a2.16 2.16 0 0 0-2.16-.02z" fill="red" fill-rule="evenodd"/></g></g></svg>