<svg xmlns="http://www.w3.org/2000/svg" viewBox="0 0 22.27 30.19"><defs><style>.cls-2{fill:#8d8e8e}</style></defs><g id="Слой_2" data-name="Слой 2"><g id="Слой_1-2" data-name="Слой 1"><path d="M2.55.48A4.23 4.23 0 0 1 4.46 2 2.91 2.91 0 0 1 5 3.6v23a2.92 2.92 0 0 1-.52 1.64 3.89 3.89 0 0 1-1.17 1.1 6.3 6.3 0 0 1-3.31.85v-2.6a4.1 4.1 0 0 0 1.59-.29 1.8 1.8 0 0 0 .79-.55c.06-.1.06-.13.06-.15v-23a.26.26 0 0 0-.06-.16A1.41 1.41 0 0 0 2 3.08a3.83 3.83 0 0 0-2-.48V0a6.71 6.71 0 0 1 2.55.48z" fill="#868787"/><ellipse class="cls-2" cx="21.06" cy="15.01" rx="1.21" ry="1.25"/><ellipse class="cls-2" cx="16.43" cy="15.01" rx="1.21" ry="1.25"/><ellipse class="cls-2" cx="11.81" cy="15.01" rx="1.21" ry="1.25"/></g></g></svg>