<svg xmlns="http://www.w3.org/2000/svg" viewBox="0 0 43.35 22.11"><defs><style>.cls-2{fill:#fff}</style></defs><g id="Слой_2" data-name="Слой 2"><g id="Слой_1-2" data-name="Слой 1"><path d="M19.46 17.64a6 6 0 0 0-.39-1.16c-.61-1.05-1.27-2.08-1.91-3.11-.41-.65-.54-1.34.13-1.84s1.29-.12 1.77.44 1.09 1.28 1.63 1.93a4.35 4.35 0 0 0 2.38 1.75 2.67 2.67 0 0 1 1.73 3.45 2.89 2.89 0 0 1-3.29 2 2.69 2.69 0 0 1-2.05-3.46z" fill-rule="evenodd" fill="#fff"/><path class="cls-2" d="M43.31 22.11c.31-.8-1.16-1.21-1.84-1.21l-37.8.15 1.09-5.74 2.33 1c.66.29 1 .15 1-.71l-2.91-1.24 3.26-5 3.08 3.45 1-1L9.1 8.74l4.75-3.33c.39.92.73 1.62 1 2.34s.62.82 1.19.25l-1.23-3 6.36-1.4v3.8c0 .29.32.56.49.84.16-.29.44-.58.45-.88.05-1.12 0-2.25 0-3.7l6.3 1.24-1.16 3c.8.64.8.63 1.25-.45.26-.61.52-1.22.88-2.07l4.76 3.24-3.44 2.97c.52.86.81 1.18 1.39.51.79-.92 1.62-1.8 2.62-2.91l3.44 5.15-2.94 1.27c.22 1 .22 1 1.27.55l2.06-.82 1.16 5.76h-3.85c-.27 0-.52.27-.79.42.26.19.52.52.79.53 1.17.06 2.34 0 3.83 0h1.54v-.45A19.6 19.6 0 1 0 2 22v.15h41.31z"/><path class="cls-2" d="M2 22a19.6 19.6 0 1 1 39.19-.3v.45h2.09v-.25A21.66 21.66 0 1 0 0 21.53v.58h2V22z"/></g></g></svg>