<svg xmlns="http://www.w3.org/2000/svg" viewBox="0 0 67.75 70.47"><defs><style>.cls-1{fill:#fff;fill-rule:evenodd}</style></defs><g id="Слой_2" data-name="Слой 2"><g id="Слой_1-2" data-name="Слой 1"><path class="cls-1" d="M12 19.67v4.78H9.07a3.09 3.09 0 0 0-1.3.31 1 1 0 0 0 .09 1.89 3.56 3.56 0 0 0 1.46.26h44.19a50 50 0 0 1 5.66.14 7 7 0 0 1 6.13 6.65c.11 1.73 0 3.47 0 5.28H52.87a9.71 9.71 0 0 0-2.39 19.15 8.69 8.69 0 0 0 2.09.27h12.88a49.48 49.48 0 0 1-.45 6.7 6.92 6.92 0 0 1-6.91 5.36H7.32A7.2 7.2 0 0 1 0 63.24V26.92a7.22 7.22 0 0 1 7.2-7.25c1.6-.01 3.18 0 4.8 0z"/><path class="cls-1" d="M25.72 24.13l2-4.83 6.77-15.94a5 5 0 0 1 7-2.85L61.78 9.1a5 5 0 0 1 2.69 6.9c-1.13 2.52-2.28 5-3.4 7.58a.83.83 0 0 1-.9.59h-4.48l1.42-3.42a7.88 7.88 0 0 1-4-4.11 7.53 7.53 0 0 1 0-5.76 3.36 3.36 0 0 0-.35-.21l-6.6-2.82a7.75 7.75 0 0 1-4.13 4 7.43 7.43 0 0 1-5.73 0c-.13.27-.25.5-.36.75-1.53 3.61-3.07 7.23-4.58 10.85a.93.93 0 0 1-1.05.68c-1.48-.03-2.97 0-4.59 0zm33.55 17.34H65a2.44 2.44 0 0 1 2.73 2.69v9.08a2.43 2.43 0 0 1-2.66 2.69H53.5a7.23 7.23 0 0 1 0-14.46c1.94-.01 3.86 0 5.77 0zm-.77 7.26a2.83 2.83 0 1 0-2.87 2.8 2.84 2.84 0 0 0 2.87-2.8zM22.81 24.42H20.4c.12-.48.22-.91.33-1.34 1.43-5.43 2.85-10.86 4.27-16.27A5 5 0 0 1 31.51 3a1.85 1.85 0 0 1 .27.15zm-8.93.98c.33-2.5.63-4.89 1-7.28s.69-5 1-7.56a4.89 4.89 0 0 1 5.22-4.29c-.75 2.83-1.74 6.59-3.1 11.64-.59 2.21-1.2 4.41-1.74 6.63-.16.65-.38 1-1.09.86a8.6 8.6 0 0 0-1.29 0z"/></g></g></svg>