<svg xmlns="http://www.w3.org/2000/svg" viewBox="0 0 21.46 54.52"><defs><style>.cls-1{fill:#8d8e8e}</style></defs><g id="Слой_2" data-name="Слой 2"><g id="Слой_1-2" data-name="Слой 1"><ellipse class="cls-1" cx="1.97" cy="40.39" rx="1.27" ry="1.25"/><ellipse class="cls-1" cx="6.81" cy="40.39" rx="1.27" ry="1.25"/><ellipse class="cls-1" cx="11.66" cy="40.39" rx="1.27" ry="1.25"/><ellipse class="cls-1" cx="1.25" cy="1.27" rx="1.25" ry="1.27"/><ellipse class="cls-1" cx="1.25" cy="6.11" rx="1.25" ry="1.27"/><ellipse class="cls-1" cx="1.25" cy="10.96" rx="1.25" ry="1.27"/><ellipse class="cls-1" cx="1.25" cy="15.8" rx="1.25" ry="1.27"/><ellipse class="cls-1" cx="1.25" cy="20.64" rx="1.25" ry="1.27"/><ellipse class="cls-1" cx="1.25" cy="25.49" rx="1.25" ry="1.27"/><ellipse class="cls-1" cx="1.25" cy="30.33" rx="1.25" ry="1.27"/><ellipse class="cls-1" cx="1.25" cy="35.17" rx="1.25" ry="1.27"/><path d="M19.13 54.08a3.85 3.85 0 0 1-1.73-1.34 2.64 2.64 0 0 1-.47-1.5V30.33a2.65 2.65 0 0 1 .47-1.49 3.54 3.54 0 0 1 1.07-1 5.72 5.72 0 0 1 3-.78v2.36a3.75 3.75 0 0 0-1.45.27 1.64 1.64 0 0 0-.71.5.25.25 0 0 0-.06.14v20.92s0 .06.06.14a1.29 1.29 0 0 0 .37.33 3.49 3.49 0 0 0 1.79.44v2.37a6.09 6.09 0 0 1-2.34-.45z" fill="#868787"/></g></g></svg>