<svg xmlns="http://www.w3.org/2000/svg" viewBox="0 0 100.59 89.15"><g data-name="Слой 2"><path d="M0 59.39c1.09.37 1.33-.37 1.66-1q6.93-13.83 13.88-27.61c.11-.22.21-.45.33-.72l-.73-.29a4 4 0 0 1 .39-7.5 3.82 3.82 0 0 1 4.28 1.32 1.28 1.28 0 0 0 1.4.53 24.31 24.31 0 0 0 10.14-3.79 71.48 71.48 0 0 1 7.32-4.13c4.51-2.1 9.36-2.41 14.26-2.13a28.79 28.79 0 0 1 14.3 5 29.63 29.63 0 0 0 7.39 4 50.54 50.54 0 0 0 5.09 1.14 1.1 1.1 0 0 0 .87-.34 4 4 0 0 1 7.28 2.29 4 4 0 0 1-2.79 3.85l-.35.12c.11.24.2.47.31.68L98.94 58.3c.34.67.56 1.47 1.64 1.1a3.9 3.9 0 0 1-.83 2.6 9.32 9.32 0 0 1-3.43 2.81 24.18 24.18 0 0 1-9.39 2.52 30.36 30.36 0 0 1-13.8-1.74 12.06 12.06 0 0 1-4.57-2.91 4.66 4.66 0 0 1-1.41-3.16c1.17-.25 1.17-.25 1.73-1.36l13.75-27.3c.11-.22.21-.45.4-.87h-2.81A28.9 28.9 0 0 1 66 25.17c-2.17-1.38-4.48-2.54-6.73-3.79a9 9 0 0 0-1.08-.38c-1.79 16.64-3.57 33.21-5.36 49.88H59c.71 0 1 .29 1 1a22.25 22.25 0 0 0 .23 4 8.16 8.16 0 0 0 6.86 6.34l.77.14v6.8h-35.1v-6.8c.5-.1 1-.18 1.53-.3a8.26 8.26 0 0 0 6.32-7.78v-1.82c0-1.58 0-1.58 1.54-1.58h5.65l-5.37-49.93a15.76 15.76 0 0 0-1.79.72c-2 1.12-4 2.22-6 3.44A28.73 28.73 0 0 1 24 29.55c-2.07.33-4.16.47-6.33.71.07.15.17.39.28.63q7 14 14 27.92c.33.66.79.65 1.53.67a12.68 12.68 0 0 1-.48 1.81 7 7 0 0 1-2.79 2.93 20.25 20.25 0 0 1-8 2.84 31.42 31.42 0 0 1-15.84-1.29 12.6 12.6 0 0 1-4.82-2.93A4.89 4.89 0 0 1 0 59.39zm30 0L16.75 33.05 3.48 59.4zm53.88-26.34L70.63 59.37h26.51zM44 6.59c1.46-.21 2.83-.48 4.2-.59a26.89 26.89 0 0 1 7.62.48c.68.14.78.43.66 1a6.28 6.28 0 0 1-12.28.23c-.06-.29-.1-.61-.2-1.12zm.55-2.69A6.12 6.12 0 0 1 50.72 0c2.4.12 4.9 2 5.28 3.9-1.9-.15-3.83-.43-5.75-.43s-3.77.28-5.7.43z" fill="#fff" fill-rule="evenodd" data-name="Слой 1"/></g></svg>