<svg xmlns="http://www.w3.org/2000/svg" viewBox="0 0 60.61 60.61"><defs><style>.cls-4{fill:#fff;fill-rule:evenodd}</style></defs><g id="Слой_2" data-name="Слой 2"><g id="Слой_1-2" data-name="Слой 1"><circle cx="30.3" cy="30.3" r="30.05" fill="none" stroke="#de0613" stroke-miterlimit="10" stroke-width=".5"/><circle cx="30.43" cy="30.45" r="26.49" fill="#f50d1e" opacity=".3"/><circle cx="30" cy="30.29" r="21.37" fill="#f50b1c" opacity=".7"/><path class="cls-4" d="M16.59 27.32a.46.46 0 0 0 0-.07c0-.16-.09-.32-.13-.48a4.9 4.9 0 0 1-.14-1 4.47 4.47 0 0 1 .63-2.47 5.94 5.94 0 0 1 1.39-1.58 8.15 8.15 0 0 1 1.23-.83c.22-.12.45-.23.68-.33h.07v.08l.34.83.74 1.83.33.82.74 1.85.35.87.38.95v.05l-.06.06a2.74 2.74 0 0 0-.49.68 2.11 2.11 0 0 0-.2 1.24 2.61 2.61 0 0 0 .22.75 3.33 3.33 0 0 0 .45.74l.13.14c1.64 1.53 3.28 3 5 4.52.62.54 1.25 1.09 1.9 1.59l.57.42a1.94 1.94 0 0 0 .81.33 1.82 1.82 0 0 0 .87-.07 2.53 2.53 0 0 0 .8-.44 3.13 3.13 0 0 0 .47-.45l7.53 2.44v.05a11.33 11.33 0 0 1-1.2 1.25 17.11 17.11 0 0 1-2 1.58l-.35.24h-.05l-1.31.48a2 2 0 0 1-.3.07 7.4 7.4 0 0 1-2.4 0 12 12 0 0 1-2.04-.46 17.84 17.84 0 0 1-2-.85 28.4 28.4 0 0 1-2.94-1.68c-.82-.53-1.62-1.09-2.42-1.67-.32-.24-.64-.47-.95-.74A13.68 13.68 0 0 1 22 36.89 19.7 19.7 0 0 1 20.57 35c-.4-.57-.78-1.16-1.14-1.76a32.194 32.194 0 0 1-1.19-2.2c-.15-.31-.32-.65-.47-1s-.27-.58-.39-.88c-.19-.45-.37-.9-.56-1.35v-.07z"/><path class="cls-4" d="M41.66 37.19v.33c0 .51 0 1 .07 1.53L34 36.55l1.23-1.37.08-.05A1.44 1.44 0 0 1 36 35a2.5 2.5 0 0 1 .56.1l1.9.58 2.47.8a1.21 1.21 0 0 1 .61.44l.07.11zM21.25 20.12h.19a2.4 2.4 0 0 1 .65 0 3.15 3.15 0 0 1 .75.16 1.38 1.38 0 0 1 .39.21.53.53 0 0 1 .18.23l.86 2.24 1 2.63a.19.19 0 0 1 0 .15l-.22.58a1.74 1.74 0 0 1-.31.5 2.67 2.67 0 0 1-.47.44.9.9 0 0 1-.26.14h-.09a.16.16 0 0 1-.16-.08c0-.07-.08-.14-.12-.22s-.18-.4-.26-.6l-.56-1.5-.21-.53L21.25 21l-.25-.68v-.07l.11-.07zm11.27-2.91a1.21 1.21 0 0 1 1-.17 25.83 25.83 0 0 1 2.74.72 11.24 11.24 0 0 1 4.3 2.77 10.44 10.44 0 0 1 3.09 7.72 6.89 6.89 0 0 1-.16 1.25 1 1 0 0 1-1.32.88c-.33-.06-.66-.14-1-.21a.63.63 0 0 1-.54-.66v-1.57a7 7 0 0 0-1-3.53 8.41 8.41 0 0 0-4.57-4 10.74 10.74 0 0 0-1.83-.41c-.77-.12-1.16-.48-1.16-1.25a5.29 5.29 0 0 1 .21-1.18 1.33 1.33 0 0 1 .24-.36z"/><path class="cls-4" d="M31.51 22.85a1.05 1.05 0 0 1 .87-.26A6 6 0 0 1 36 24.21a6.39 6.39 0 0 1 2 3.42 6 6 0 0 1 0 2.21.68.68 0 0 1-.58.61 3.71 3.71 0 0 1-2-.18C35 30.14 35 30 35 29.65a3 3 0 0 0-.49-2.36 3.88 3.88 0 0 0-2.2-1.74 5 5 0 0 0-1-.15.44.44 0 0 1-.42-.27 2.55 2.55 0 0 1 .62-2.28z"/></g></g></svg>