<svg xmlns="http://www.w3.org/2000/svg" viewBox="0 0 37.3 26.85"><g data-name="Слой 2"><path d="M18.52 2.63h-2.37V0h7.57v2.61h-2.35v2.15a30.14 30.14 0 0 0 3.69 0 5.45 5.45 0 0 1 5.25 2c.92 1.1 2.13 2 3.14 3a2.19 2.19 0 0 1 .55 1.33c.07 1.59 0 3.18 0 4.84h1.36c0-.25.05-.5.1-.89a8.94 8.94 0 0 1 1.4.45.9.9 0 0 1 .35.67v5.48a1.09 1.09 0 0 1-.54.69 5.36 5.36 0 0 1-1.14.36l-.18-.93a1.7 1.7 0 0 0-2 .63c-1.13 1.36-2.33 2.66-3.56 3.94a1.72 1.72 0 0 1-1.1.49H12.85a1.54 1.54 0 0 1-1.05-.53c-1-1.25-1.9-2.57-2.88-3.82A1.51 1.51 0 0 0 8 22c-1-.06-2.07 0-3.19 0v-4.43H2.63V20H0v-7.63h2.6v2.41h2.17v-4.11h3.17A1.09 1.09 0 0 0 9 10c1-1.51 1.92-3 2.82-4.57a1.22 1.22 0 0 1 1.25-.68h5.45z" fill="#fff" fill-rule="evenodd" data-name="Слой 1"/></g></svg>