<svg xmlns="http://www.w3.org/2000/svg" viewBox="0 0 45.71 41.89"><defs><style>.cls-1{fill:#fff;fill-rule:evenodd}</style></defs><g id="Слой_2" data-name="Слой 2"><g id="Слой_1-2" data-name="Слой 1"><path class="cls-1" d="M45.71 0v7.33H20.56a12.16 12.16 0 0 0-7.68 2.57C8.22 13.47 6.32 18.27 7.65 24s5.18 9.3 11 10.42a13.64 13.64 0 0 0 15.94-12.09c.49-5.88-1.94-10.32-6.95-13.38l-.41-.25a4.52 4.52 0 0 1 .5-.06h9.75a.87.87 0 0 1 .8.47A21 21 0 1 1 17.06.34 20.3 20.3 0 0 1 20.6 0h24.32z"/><path class="cls-1" d="M21 32.85A11.93 11.93 0 1 1 32.9 21.2 12 12 0 0 1 21 32.85zm2.22-12a2.22 2.22 0 1 0-4.43.05 2.22 2.22 0 1 0 4.43-.05zm-6.51 6.33a1.41 1.41 0 0 0 1.4 1.4 1.44 1.44 0 0 0 1.38-1.43 1.42 1.42 0 0 0-1.38-1.37 1.39 1.39 0 0 0-1.43 1.44zm8.6-12.63A1.39 1.39 0 1 0 23.89 16a1.41 1.41 0 0 0 1.38-1.41zM16 18a1.38 1.38 0 0 0-1.41-1.37A1.4 1.4 0 0 0 13.28 18a1.38 1.38 0 0 0 1.39 1.39A1.36 1.36 0 0 0 16 18zm1.14-3.6a1.38 1.38 0 1 0 2.76 0 1.38 1.38 0 0 0-2.76 0zm8.92 4.13a1.37 1.37 0 0 0 1.4 1.39 1.39 1.39 0 0 0 0-2.79 1.38 1.38 0 0 0-1.35 1.39zm2.55 5.32a1.37 1.37 0 0 0-1.38-1.4 1.39 1.39 0 0 0-1.38 1.41 1.38 1.38 0 0 0 2.77 0zm-3.91 3.63A1.38 1.38 0 0 0 23.39 26 1.42 1.42 0 0 0 22 27.42a1.39 1.39 0 0 0 1.4 1.39 1.37 1.37 0 0 0 1.35-1.34zm-8.9-4.14a1.39 1.39 0 0 0-2.78 0 1.43 1.43 0 0 0 1.37 1.43 1.4 1.4 0 0 0 1.46-1.44z"/></g></g></svg>