<svg xmlns="http://www.w3.org/2000/svg" viewBox="0 0 43.42 43.5"><defs><style>.cls-1{fill:#fff;fill-rule:evenodd}</style></defs><g id="Слой_2" data-name="Слой 2"><g id="Слой_1-2" data-name="Слой 1"><path class="cls-1" d="M43.42 21.69A21.71 21.71 0 1 1 21.76 0a21.71 21.71 0 0 1 21.66 21.69zm-39.65.17a17.93 17.93 0 1 0 17.9-18 18 18 0 0 0-17.9 18z"/><path class="cls-1" d="M5.88 23.74l-.59-6.19c.77.09 1.26.13 1.75.2 3.15.44 6 0 8.23-2.58 3.07-3.56 9.73-3.6 12.86 0 2.24 2.58 5.07 3 8.23 2.57l1.73-.24c-.19 2.17-.36 4.18-.57 6.54-2.67-2.62-5.15-1.72-7.57-.39a10 10 0 0 0-4.49 4.83c-1 2.2-1.06 4.34.85 6.17-1.74 1.06-7.14 1-8.92.21.41-1.22 1.18-2.42 1.12-3.58a9.31 9.31 0 0 0-1.37-4.15 10 10 0 0 0-6.33-4.57 4.09 4.09 0 0 0-4.59 1.28z"/></g></g></svg>