<svg xmlns="http://www.w3.org/2000/svg" viewBox="0 0 22.55 55.05"><defs><style>.cls-2{fill:#8d8e8e}</style></defs><g id="Слой_2" data-name="Слой 2"><g id="Слой_1-2" data-name="Слой 1"><path d="M20 .48A4.23 4.23 0 0 0 18.1 2a2.92 2.92 0 0 0-.52 1.65v23a2.92 2.92 0 0 0 .52 1.64 3.9 3.9 0 0 0 1.17 1.1 6.3 6.3 0 0 0 3.28.86v-2.6a4.13 4.13 0 0 1-1.6-.3 1.8 1.8 0 0 1-.78-.55c-.06-.1-.06-.13-.06-.15V3.6a.26.26 0 0 1 .06-.16 1.39 1.39 0 0 1 .41-.36 3.83 3.83 0 0 1 2-.48V0A6.7 6.7 0 0 0 20 .48z" fill="#868787"/><ellipse class="cls-2" cx="1.97" cy="14.66" rx="1.27" ry="1.25"/><ellipse class="cls-2" cx="6.81" cy="14.66" rx="1.27" ry="1.25"/><ellipse class="cls-2" cx="11.66" cy="14.66" rx="1.27" ry="1.25"/><ellipse class="cls-2" cx="1.25" cy="53.78" rx="1.25" ry="1.27"/><ellipse class="cls-2" cx="1.25" cy="48.94" rx="1.25" ry="1.27"/><ellipse class="cls-2" cx="1.25" cy="44.1" rx="1.25" ry="1.27"/><ellipse class="cls-2" cx="1.25" cy="39.25" rx="1.25" ry="1.27"/><ellipse class="cls-2" cx="1.25" cy="34.41" rx="1.25" ry="1.27"/><ellipse class="cls-2" cx="1.25" cy="29.57" rx="1.25" ry="1.27"/><ellipse class="cls-2" cx="1.25" cy="24.73" rx="1.25" ry="1.27"/><ellipse class="cls-2" cx="1.25" cy="19.88" rx="1.25" ry="1.27"/></g></g></svg>