<svg xmlns="http://www.w3.org/2000/svg" viewBox="0 0 47.3 41.92"><g data-name="Слой 2"><path d="M0 27.92c.51.17.62-.17.78-.48Q4 21 7.31 14.47c.05-.1.1-.21.16-.34L7.12 14a1.89 1.89 0 0 1 .18-3.53 1.79 1.79 0 0 1 2 .62.6.6 0 0 0 .66.25 11.41 11.41 0 0 0 4.77-1.78 33.91 33.91 0 0 1 3.44-1.95 13.71 13.71 0 0 1 6.71-1 13.55 13.55 0 0 1 6.73 2.33 13.82 13.82 0 0 0 3.49 1.86 23.65 23.65 0 0 0 2.39.54.52.52 0 0 0 .41-.16 1.88 1.88 0 0 1 2.12-.7 1.89 1.89 0 0 1 0 3.59l-.16.06c0 .11.09.22.15.32l6.53 13c.16.32.26.69.77.52a1.81 1.81 0 0 1-.39 1.24 4.41 4.41 0 0 1-1.61 1.32 11.37 11.37 0 0 1-4.41 1.18 14.23 14.23 0 0 1-6.49-.82 5.64 5.64 0 0 1-2.15-1.37 2.19 2.19 0 0 1-.69-1.52c.55-.12.55-.12.81-.64l6.47-12.84c.05-.1.1-.21.19-.41h-1.32A13.6 13.6 0 0 1 31 11.83c-1-.65-2.11-1.2-3.17-1.78a3.81 3.81 0 0 0-.52-.2c-.84 7.82-1.68 15.62-2.52 23.45h2.9c.33 0 .46.14.47.47a10.53 10.53 0 0 0 .11 1.88 3.84 3.84 0 0 0 3.23 3l.36.06v3.2H15.4v-3.18c.24 0 .48-.08.72-.14a3.88 3.88 0 0 0 3-3.66v-.86c0-.74 0-.74.72-.74h2.65L20 9.85a7.71 7.71 0 0 0-.84.34c-.94.53-1.9 1-2.81 1.62a13.56 13.56 0 0 1-5 2.09c-1 .16-2 .22-3 .33 0 .07.08.18.13.29q3.3 6.56 6.6 13.13c.15.31.37.3.72.31a5.88 5.88 0 0 1-.25.86 3.32 3.32 0 0 1-1.31 1.38 9.52 9.52 0 0 1-3.77 1.33A14.77 14.77 0 0 1 3 30.92a5.92 5.92 0 0 1-2.27-1.37A2.3 2.3 0 0 1 0 27.92zm14.11 0L7.88 15.54 1.64 27.93zm25.33-12.38l-6.23 12.38h12.46zM20.69 3.09c.69-.1 1.33-.23 2-.28a12.65 12.65 0 0 1 3.56.19c.32.07.37.21.31.49a3 3 0 0 1-2.86 2.42 3 3 0 0 1-2.91-2.28c-.04-.14-.06-.3-.1-.54zm.26-1.26A2.87 2.87 0 0 1 23.85 0a2.81 2.81 0 0 1 2.51 1.83c-.89-.07-1.8-.2-2.71-.2s-1.8.13-2.7.2z" fill="#fff" fill-rule="evenodd" data-name="Слой 1"/></g></svg>