<svg xmlns="http://www.w3.org/2000/svg" viewBox="0 0 35.84 17.52"><defs><style>.cls-1{fill:#fff;fill-rule:evenodd}</style></defs><g id="Слой_2" data-name="Слой 2"><g id="Слой_1-2" data-name="Слой 1"><path class="cls-1" d="M5.27 13.75H3.12v1.6h2.15v2.16h1.61v-2.16H9v-1.4c0-.16 0-.21-.21-.21h-2V11.6H5.27zm26.83 0h-5.82s-.11.07-.11.11v1.48h5.93zM9 4.26a1.52 1.52 0 0 0 0-.17V1.93a2.07 2.07 0 0 1 .05-.46.78.78 0 0 1 .76-.6H26a.78.78 0 0 1 .8.82v2.56h8.19a.79.79 0 0 1 .86.86v2.91a.81.81 0 0 1-.9.91H.83A.8.8 0 0 1 0 8.16V5.08a.79.79 0 0 1 .74-.81H9z"/><path class="cls-1" d="M33.51 3.38h-5.19a11.06 11.06 0 0 1 0-1.35c0-.34.34-.49.69-.56V.7a.63.63 0 0 1 .69-.7h2.36c.47 0 .69.23.7.71v.6a.26.26 0 0 0 .14.19.74.74 0 0 1 .6.84c.01.34.01.66.01 1.04zM3.18 1.42V.65A.6.6 0 0 1 3.82 0h2.36a.6.6 0 0 1 .66.67v.74a1.25 1.25 0 0 1 .37.16c.13.12.3.28.31.44v1.35H2.65c-.15 0-.21 0-.2-.2s0-.53 0-.79c.01-.58.14-.76.73-.95z"/></g></g></svg>