<svg xmlns="http://www.w3.org/2000/svg" viewBox="0 0 22.48 57.5"><defs><style>.cls-2{fill:#8d8e8e}</style></defs><g id="Слой_2" data-name="Слой 2"><g id="Слой_1-2" data-name="Слой 1"><path d="M2.55 27.79a4.23 4.23 0 0 1 1.91 1.47A2.92 2.92 0 0 1 5 30.91v23a2.91 2.91 0 0 1-.52 1.64 3.9 3.9 0 0 1-1.17 1.1A6.29 6.29 0 0 1 0 57.5v-2.6a4.13 4.13 0 0 0 1.6-.29 1.8 1.8 0 0 0 .78-.61c.06-.1.06-.13.06-.15v-23a.27.27 0 0 0-.06-.16 1.42 1.42 0 0 0-.38-.3 3.83 3.83 0 0 0-2-.48v-2.6a6.69 6.69 0 0 1 2.55.48z" fill="#868787"/><ellipse class="cls-2" cx="20.51" cy="40.39" rx="1.27" ry="1.25"/><ellipse class="cls-2" cx="15.67" cy="40.39" rx="1.27" ry="1.25"/><ellipse class="cls-2" cx="10.82" cy="40.39" rx="1.27" ry="1.25"/><ellipse class="cls-2" cx="21.23" cy="1.27" rx="1.25" ry="1.27"/><ellipse class="cls-2" cx="21.23" cy="6.11" rx="1.25" ry="1.27"/><ellipse class="cls-2" cx="21.23" cy="10.96" rx="1.25" ry="1.27"/><ellipse class="cls-2" cx="21.23" cy="15.8" rx="1.25" ry="1.27"/><ellipse class="cls-2" cx="21.23" cy="20.64" rx="1.25" ry="1.27"/><ellipse class="cls-2" cx="21.23" cy="25.48" rx="1.25" ry="1.27"/><ellipse class="cls-2" cx="21.23" cy="30.33" rx="1.25" ry="1.27"/><ellipse class="cls-2" cx="21.23" cy="35.17" rx="1.25" ry="1.27"/></g></g></svg>