<svg xmlns="http://www.w3.org/2000/svg" viewBox="0 0 21.1 55.75"><defs><style>.cls-2{fill:#8d8e8e}</style></defs><g id="Слой_2" data-name="Слой 2"><g id="Слой_1-2" data-name="Слой 1"><path d="M2.55.48A4.23 4.23 0 0 1 4.46 2 2.91 2.91 0 0 1 5 3.6v23a2.92 2.92 0 0 1-.52 1.64 3.89 3.89 0 0 1-1.17 1.1 6.3 6.3 0 0 1-3.31.85v-2.6a4.11 4.11 0 0 0 1.59-.3 1.8 1.8 0 0 0 .79-.55c.06-.1.06-.13.06-.15V3.6a.26.26 0 0 0-.06-.16A1.41 1.41 0 0 0 2 3.08a3.83 3.83 0 0 0-2-.48V0a6.71 6.71 0 0 1 2.55.48z" fill="#868787"/><ellipse class="cls-2" cx="19.13" cy="15.36" rx="1.27" ry="1.25"/><ellipse class="cls-2" cx="14.28" cy="15.36" rx="1.27" ry="1.25"/><ellipse class="cls-2" cx="9.44" cy="15.36" rx="1.27" ry="1.25"/><ellipse class="cls-2" cx="19.84" cy="54.48" rx="1.25" ry="1.27"/><ellipse class="cls-2" cx="19.84" cy="49.64" rx="1.25" ry="1.27"/><ellipse class="cls-2" cx="19.84" cy="44.8" rx="1.25" ry="1.27"/><ellipse class="cls-2" cx="19.84" cy="39.96" rx="1.25" ry="1.27"/><ellipse class="cls-2" cx="19.84" cy="35.11" rx="1.25" ry="1.27"/><ellipse class="cls-2" cx="19.85" cy="30.27" rx="1.25" ry="1.27"/><ellipse class="cls-2" cx="19.85" cy="25.43" rx="1.25" ry="1.27"/><ellipse class="cls-2" cx="19.85" cy="20.59" rx="1.25" ry="1.27"/></g></g></svg>