<svg xmlns="http://www.w3.org/2000/svg" viewBox="0 0 43.73 43.75"><defs><style>.cls-1{fill:#fff;fill-rule:evenodd}</style></defs><g id="Слой_2" data-name="Слой 2"><g id="Слой_1-2" data-name="Слой 1"><path class="cls-1" d="M0 21.12c.06-.46.11-.93.17-1.39A22.39 22.39 0 0 1 4.66 9a23 23 0 0 1 16.42-9c.78-.07.85 0 .89.75V9.9c0 .76 0 .8-.8.93a12.74 12.74 0 0 0-2.6.67 12.11 12.11 0 0 0-7.5 8.5c-.15.55-.23 1.12-.32 1.68a.29.29 0 0 1-.34.28H.51c-.18 0-.38 0-.51-.15z"/><path class="cls-1" d="M43.73 24c0 .46-.08.93-.13 1.39a18.78 18.78 0 0 1-1.71 6.13 20.87 20.87 0 0 1-9.71 10.08 19.25 19.25 0 0 1-6.21 2 24.07 24.07 0 0 1-4.45.16A20.92 20.92 0 0 1 4.17 32.24a20.26 20.26 0 0 1-2-6.77l-.23-1.67h2.07c.06 0 .17.13.18.2.07.49.1 1 .17 1.48a18.28 18.28 0 0 0 2.29 6.63 18.64 18.64 0 0 0 8 7.53 17.78 17.78 0 0 0 6.08 1.78 18.25 18.25 0 0 0 13.47-3.74 18.27 18.27 0 0 0 7-11.37A18.74 18.74 0 0 0 25.89 4.44c-.56-.1-1.13-.13-1.7-.19-.32 0-.41-.11-.42-.43V1.97l1.17.1a21 21 0 0 1 16.88 12 19.09 19.09 0 0 1 1.78 6.13c.05.45.07.9.11 1.36v.28z"/><path class="cls-1" d="M22.75 12.43a10.57 10.57 0 0 1 10.57 10.49 10.66 10.66 0 0 1-10.5 10.42A10.66 10.66 0 0 1 12.4 22.82a10.56 10.56 0 0 1 10.35-10.39zm-3.14 10.45a3.37 3.37 0 0 0 3.24 3.28 3.44 3.44 0 0 0 3.28-3.28 3.35 3.35 0 0 0-3.4-3.28 3.31 3.31 0 0 0-3.12 3.28zm1.79 6.86a1.41 1.41 0 0 0 2.83 0 1.41 1.41 0 1 0-2.83 0zm1.5-15.12A1.31 1.31 0 0 0 21.51 16a1.39 1.39 0 0 0 1.36 1.45A1.46 1.46 0 0 0 24.31 16a1.34 1.34 0 0 0-1.41-1.38zm4.55 5a1.4 1.4 0 1 0 1.4-1.52 1.38 1.38 0 0 0-1.4 1.48zm-9.18 6.68c.12-.58-.61-1.37-1.35-1.37a1.39 1.39 0 0 0-1.43 1.26 1.43 1.43 0 0 0 1.26 1.54 1.37 1.37 0 0 0 1.51-1.48zM28.81 25a1.32 1.32 0 0 0-1.41 1.32 1.45 1.45 0 0 0 1.38 1.47 1.33 1.33 0 0 0 1.39-1.32A1.29 1.29 0 0 0 28.81 25zM17 20.77a1.33 1.33 0 0 0 1.38-1.35A1.49 1.49 0 0 0 16.91 18a1.43 1.43 0 0 0-1.37 1.37 1.3 1.3 0 0 0 1.46 1.4z"/></g></g></svg>