<svg xmlns="http://www.w3.org/2000/svg" viewBox="0 0 26.65 24.11"><defs><style>.cls-1{fill:#fff}</style></defs><g id="Слой_2" data-name="Слой 2"><g id="Слой_1-2" data-name="Слой 1"><path class="cls-1" d="M4.9 19.59a25.39 25.39 0 0 1 1.92-5.72 2.58 2.58 0 0 1 2.1-1.55 7.93 7.93 0 0 1 .93-.06h5.08c.85 0 1.7 0 2.55.06a2.59 2.59 0 0 1 2.3 1.46A17.47 17.47 0 0 1 21.05 17a35.46 35.46 0 0 1 1.42 7.12h4.18c-.11-1.39-.25-2.78-.45-4.16a35.48 35.48 0 0 0-1.69-7 32.72 32.72 0 0 0-1.87-4.26 3.31 3.31 0 0 0-2.47-1.8 13.94 13.94 0 0 0-1.68-.11h-1.07V5.44h.32l1.49-.06a.84.84 0 0 0 .87-1A11.07 11.07 0 0 0 19.84 3a4.22 4.22 0 0 0-1.9-3H9a1.07 1.07 0 0 0-.76.3 3.63 3.63 0 0 0-.97 1.3 8.93 8.93 0 0 0-.72 2.69c-.07.67.2 1 .87 1.08.51 0 1 0 1.55.05h.25v1.36H7.01a3.49 3.49 0 0 0-3.09 2 33.9 33.9 0 0 0-2.49 6.32 45.7 45.7 0 0 0-1.38 8.25c0 .25 0 .51-.05.76h4.19c.17-1.52.39-3.02.71-4.52zm5.72-14.16H16v1.34h-5.38z"/><path class="cls-1" d="M19.09 15.54a10.15 10.15 0 0 0-.67-1.34 1.06 1.06 0 0 0-.81-.53 4.76 4.76 0 0 0-.6 0h-3.82v-.06l-4 .11a1.22 1.22 0 0 0-1.05.59 4.79 4.79 0 0 0-.36.71 29.26 29.26 0 0 0-2 7.45c-.08.56-.13 1.13-.2 1.69h15.48c0-.43-.08-.86-.14-1.28a31.31 31.31 0 0 0-1.83-7.34z"/></g></g></svg>